<svg xmlns="http://www.w3.org/2000/svg" xmlns:xlink="http://www.w3.org/1999/xlink" width="500" zoomAndPan="magnify" viewBox="0 0 375 374.999991" height="500" preserveAspectRatio="xMidYMid meet" version="1.0"><defs><g/><clipPath id="0dc344fdfb"><path d="M 198.164062 78 L 280.84375 78 L 280.84375 162.679688 L 198.164062 162.679688 Z M 198.164062 78 " clip-rule="nonzero"/></clipPath><clipPath id="b019910fff"><path d="M 239.546875 98.136719 C 239.570312 98.136719 239.589844 98.136719 239.613281 98.136719 C 252.375 98.171875 262.015625 108.980469 261.695312 120.855469 C 261.375 132.84375 251.621094 142.417969 239.332031 142.417969 C 239.273438 142.417969 239.210938 142.417969 239.152344 142.417969 C 226.980469 142.320312 217.367188 132.414062 217.464844 120.0625 C 217.558594 107.84375 227.371094 98.132812 239.546875 98.132812 Z M 236.664062 78.1875 C 234.492188 78.269531 233.550781 79.246094 233.464844 81.402344 L 233.421875 85.070312 C 233.3125 87.433594 229.496094 89.820312 226.726562 89.820312 C 226.046875 89.820312 225.429688 89.679688 224.945312 89.351562 C 224.484375 89.039062 224.125 88.550781 223.78125 88.105469 L 221.59375 85.164062 C 220.878906 84.242188 220.078125 83.746094 219.199219 83.746094 C 218.601562 83.746094 217.960938 83.976562 217.289062 84.457031 L 212.417969 88.015625 C 210.789062 89.277344 210.574219 90.78125 211.734375 92.53125 C 212.414062 93.542969 213.398438 94.410156 213.832031 95.511719 C 214.269531 96.609375 214.757812 98.296875 214.238281 99.050781 C 212.964844 100.90625 212.25 103.554688 209.433594 103.890625 C 209.375 103.898438 209.320312 103.898438 209.265625 103.898438 C 208.777344 103.898438 208.253906 103.671875 207.765625 103.519531 L 204.289062 102.386719 C 203.90625 102.292969 203.539062 102.242188 203.195312 102.242188 C 201.953125 102.242188 200.984375 102.875 200.484375 104.28125 L 198.597656 110.226562 C 198.082031 112.085938 198.683594 113.480469 200.613281 114.121094 L 204.492188 115.414062 C 205.953125 115.910156 206.648438 116.929688 206.742188 118.484375 C 207.074219 124.121094 206.910156 124.398438 201.332031 126.234375 L 200.789062 126.425781 C 198.742188 127.164062 198.042969 128.289062 198.589844 130.40625 C 199.109375 132.417969 199.757812 134.402344 200.46875 136.355469 C 200.964844 137.71875 201.925781 138.402344 203.179688 138.402344 C 203.578125 138.402344 204.003906 138.332031 204.453125 138.199219 C 205.757812 137.804688 207.046875 137.125 208.363281 137.066406 C 208.441406 137.0625 208.523438 137.0625 208.609375 137.0625 C 209.726562 137.0625 211.203125 137.359375 211.734375 138.082031 C 215.019531 142.492188 216.1875 142.273438 212.046875 147.648438 L 211.703125 148.113281 C 210.582031 149.835938 210.765625 151.355469 212.394531 152.640625 L 217.269531 156.191406 C 217.941406 156.632812 218.589844 156.855469 219.210938 156.855469 C 220.089844 156.855469 220.898438 156.40625 221.609375 155.457031 C 222.472656 154.304688 223.191406 152.996094 224.246094 152.066406 C 224.894531 151.503906 226.003906 150.90625 226.808594 150.90625 C 226.953125 150.90625 227.082031 150.925781 227.203125 150.964844 C 232.464844 152.722656 233.652344 151.449219 233.40625 158.628906 L 233.417969 159.058594 C 233.511719 161.460938 234.433594 162.386719 236.890625 162.460938 L 241.632812 162.476562 C 244.875 162.441406 245.671875 161.621094 245.699219 158.347656 C 245.753906 152.746094 245.753906 152.746094 251.167969 151.0625 L 251.304688 151.027344 C 251.738281 150.867188 252.152344 150.792969 252.539062 150.792969 C 253.542969 150.792969 254.390625 151.308594 255.085938 152.234375 L 257.5 155.542969 C 258.195312 156.421875 259.007812 156.863281 259.878906 156.863281 C 260.46875 156.863281 261.074219 156.667969 261.691406 156.265625 C 263.496094 155.085938 265.230469 153.800781 266.914062 152.457031 C 268.371094 151.285156 268.515625 149.8125 267.453125 148.261719 L 265.1875 145.113281 C 264.113281 143.652344 264.160156 142.277344 265.238281 140.777344 C 267.226562 138.003906 267.988281 136.925781 269.578125 136.925781 C 270.578125 136.925781 271.917969 137.351562 274.09375 138.054688 L 274.648438 138.210938 C 275.117188 138.378906 275.550781 138.457031 275.941406 138.457031 C 277.171875 138.457031 278.03125 137.675781 278.589844 136.324219 L 279.492188 133.675781 C 281.269531 128.378906 281.898438 127.296875 275.429688 125.4375 C 274.371094 125.136719 273.117188 124.300781 272.652344 123.367188 C 270.851562 119.695312 272.5625 116.058594 276.433594 114.8125 C 281.046875 113.328125 281.339844 112.757812 279.78125 107.984375 L 279.660156 107.570312 C 278.453125 103.691406 277.96875 102.28125 276.164062 102.28125 C 275.152344 102.28125 273.71875 102.726562 271.503906 103.429688 C 270.941406 103.609375 270.273438 103.742188 269.644531 103.742188 C 269.199219 103.742188 268.777344 103.675781 268.421875 103.519531 C 264.871094 101.902344 263.804688 97.390625 266.046875 94.285156 L 268.441406 90.636719 C 267.894531 89.722656 267.625 88.832031 267.023438 88.339844 C 265.246094 86.890625 263.375 85.550781 261.476562 84.253906 C 260.933594 83.882812 260.402344 83.714844 259.898438 83.714844 C 259.070312 83.714844 258.304688 84.167969 257.660156 84.941406 L 255.234375 88.234375 C 254.480469 89.3125 253.574219 89.808594 252.480469 89.808594 C 252.050781 89.808594 251.589844 89.730469 251.097656 89.578125 C 245.722656 87.941406 245.71875 87.960938 245.671875 82.035156 L 245.664062 81.460938 C 245.566406 79.34375 244.589844 78.277344 242.492188 78.1875 Z M 236.664062 78.1875 " clip-rule="nonzero"/></clipPath><clipPath id="f3d1ea075b"><path d="M 113 105 L 247 105 L 247 194 L 113 194 Z M 113 105 " clip-rule="nonzero"/></clipPath><clipPath id="7d3b0b12bb"><path d="M 239.664062 167.207031 C 242.152344 166.816406 244.390625 166.472656 246.71875 166.109375 C 246.71875 171.84375 247.230469 177.828125 246.582031 183.675781 C 245.886719 189.921875 240.683594 193.691406 234.226562 193.699219 L 161.089844 193.707031 C 149.367188 193.707031 137.644531 193.566406 125.925781 193.753906 C 118.925781 193.867188 112.976562 188.1875 113.058594 180.863281 C 113.296875 160.003906 113.289062 139.144531 113.058594 118.289062 C 112.980469 111.25 118.378906 105.273438 126.054688 105.316406 C 148.5625 105.441406 171.074219 105.363281 193.582031 105.363281 C 194.078125 105.363281 194.574219 105.363281 195.238281 105.363281 C 194.6875 107.785156 194.167969 110.042969 193.601562 112.550781 L 191.339844 112.550781 C 169.980469 112.550781 148.621094 112.550781 127.269531 112.550781 C 122.5 112.550781 120.394531 114.605469 120.394531 119.296875 L 120.394531 179.71875 C 120.394531 184.566406 122.328125 186.484375 127.210938 186.484375 L 232.921875 186.488281 C 237.480469 186.488281 239.660156 184.328125 239.667969 179.792969 L 239.671875 167.210938 " clip-rule="nonzero"/></clipPath><clipPath id="8463f5f7ff"><path d="M 106.441406 202 L 253.28125 202 L 253.28125 212 L 106.441406 212 Z M 106.441406 202 " clip-rule="nonzero"/></clipPath><clipPath id="bfcda83721"><path d="M 253.03125 202.121094 C 253.128906 207.269531 249.207031 211.53125 243.910156 211.648438 C 228.472656 211.988281 213.03125 211.769531 197.613281 211.769531 C 196.257812 206.757812 195.304688 206.023438 190.109375 206.007812 L 168.980469 206 C 164.726562 206.015625 163.152344 207.421875 162.542969 211.703125 L 160.898438 211.851562 C 146.667969 211.855469 132.441406 211.902344 118.207031 211.789062 C 116.199219 211.773438 114.0625 211.261719 112.210938 210.457031 C 108.765625 208.964844 107.070312 206.0625 106.777344 202.128906 Z M 253.03125 202.121094 " clip-rule="nonzero"/></clipPath><clipPath id="d446c8f1c0"><path d="M 94.382812 61.050781 L 209.789062 61.050781 L 209.789062 146.746094 L 94.382812 146.746094 Z M 94.382812 61.050781 " clip-rule="nonzero"/></clipPath><clipPath id="76b7f1b4d7"><path d="M 136.027344 61.054688 C 134.179688 61.058594 132.320312 61.132812 130.441406 61.289062 C 121.328125 62.035156 113.035156 64.972656 106.289062 71.382812 C 96.757812 80.429688 94.089844 92.039062 94.414062 104.597656 C 94.664062 114.367188 96.953125 123.785156 100.386719 132.90625 C 102.089844 137.433594 104.105469 141.851562 105.980469 146.320312 L 106.203125 146.253906 L 106.65625 146.109375 C 106.65625 142.664062 106.757812 139.210938 106.613281 135.769531 C 106.542969 134.167969 106.222656 132.5 105.625 131.019531 C 100.617188 118.589844 96.960938 105.96875 98.398438 92.292969 C 99.9375 77.613281 110.402344 66.875 125.082031 65.070312 C 127.347656 64.789062 129.589844 64.660156 131.820312 64.660156 C 139.210938 64.660156 146.414062 66.09375 153.523438 68.3125 C 169.964844 73.441406 184.589844 82.023438 198.28125 92.300781 C 201.351562 94.605469 204.332031 97.03125 207.46875 99.492188 C 208.328125 98.3125 209.03125 97.335938 209.691406 96.425781 L 206.183594 90.640625 C 205.597656 89.714844 205.058594 88.644531 204.21875 88.011719 C 195.683594 81.632812 186.671875 76.015625 177 71.515625 C 163.996094 65.460938 150.605469 61.082031 136.285156 61.054688 Z M 136.027344 61.054688 " clip-rule="nonzero"/></clipPath><clipPath id="d3a829065e"><path d="M 171.464844 160.523438 L 271.800781 160.523438 L 271.800781 238.46875 L 171.464844 238.46875 Z M 171.464844 160.523438 " clip-rule="nonzero"/></clipPath><clipPath id="0509d4b72e"><path d="M 256.449219 160.894531 C 256.449219 160.894531 256.449219 160.898438 256.445312 160.902344 C 256.445312 160.898438 256.449219 160.894531 256.449219 160.894531 Z M 256.445312 160.902344 C 256.4375 160.925781 256.402344 160.992188 256.296875 161.175781 C 256.390625 161.191406 256.480469 161.214844 256.574219 161.230469 L 256.445312 160.933594 C 256.441406 160.925781 256.445312 160.910156 256.445312 160.902344 Z M 256.574219 161.230469 L 259.574219 168.246094 C 264.484375 180.347656 267.8125 192.699219 266.386719 205.984375 C 265.058594 218.386719 257.457031 227.984375 245.570312 231.671875 C 241.472656 232.945312 237.335938 233.464844 233.183594 233.464844 C 229.429688 233.464844 225.660156 233.042969 221.890625 232.367188 C 209.886719 230.230469 198.640625 225.835938 188.199219 219.699219 C 185.335938 218.011719 182.464844 217.667969 179.585938 217.667969 C 177.566406 217.667969 175.539062 217.839844 173.496094 217.839844 C 172.910156 217.839844 172.328125 217.824219 171.738281 217.785156 C 172.460938 218.578125 173.246094 219.160156 174.101562 219.613281 C 179.859375 222.6875 185.496094 226.046875 191.433594 228.730469 C 203.777344 234.308594 216.511719 238.042969 230.050781 238.042969 C 232.042969 238.042969 234.050781 237.960938 236.085938 237.789062 C 255.304688 236.199219 269.507812 221.992188 271.132812 202.777344 C 271.96875 192.859375 270.585938 183.289062 267.9375 173.832031 C 266.824219 169.855469 265.304688 165.992188 264.199219 162.757812 C 261.292969 162.175781 258.996094 161.71875 256.570312 161.234375 Z M 256.574219 161.230469 " clip-rule="nonzero"/></clipPath><clipPath id="dce8fea17c"><path d="M 162.851562 139 L 197.300781 139 L 197.300781 174.304688 L 162.851562 174.304688 Z M 162.851562 139 " clip-rule="nonzero"/></clipPath><clipPath id="7be000dafa"><path d="M 189.15625 156.691406 C 189.175781 151.546875 185.195312 147.496094 180.089844 147.453125 C 174.898438 147.410156 170.71875 151.53125 170.726562 156.691406 C 170.734375 161.710938 174.863281 165.792969 179.988281 165.851562 C 185.050781 165.90625 189.144531 161.816406 189.160156 156.691406 M 165.316406 149.398438 C 166.222656 149.476562 167.214844 149.820312 168.019531 149.570312 C 169.460938 149.117188 169.878906 147.105469 168.835938 145.707031 C 167.648438 144.105469 168.519531 143.320312 169.757812 142.421875 C 170.953125 141.554688 172.015625 141.023438 172.960938 142.636719 C 173.644531 143.800781 174.503906 144.136719 175.839844 143.710938 C 177.21875 143.269531 177.59375 142.398438 177.480469 141.105469 C 177.292969 139.109375 178.679688 139.175781 180.027344 139.164062 C 181.425781 139.148438 182.730469 139.21875 182.570312 141.152344 C 182.460938 142.441406 182.792969 143.308594 184.207031 143.738281 C 185.59375 144.160156 186.394531 143.675781 187.070312 142.578125 C 188.089844 140.90625 189.15625 141.699219 190.28125 142.492188 C 191.453125 143.308594 192.386719 144.132812 191.152344 145.585938 C 190.308594 146.585938 190.140625 147.503906 191 148.667969 C 191.855469 149.832031 192.734375 149.945312 193.96875 149.4375 C 195.671875 148.734375 196.230469 149.851562 196.667969 151.222656 C 197.089844 152.5625 197.414062 153.796875 195.582031 154.277344 C 194.34375 154.601562 193.609375 155.152344 193.628906 156.640625 C 193.652344 158.085938 194.300781 158.714844 195.5625 159.035156 C 197.59375 159.546875 197.007812 160.867188 196.613281 162.25 C 196.175781 163.777344 195.421875 164.5625 193.832031 163.859375 C 192.664062 163.339844 191.855469 163.488281 191.0625 164.570312 C 190.242188 165.691406 190.238281 166.632812 191.132812 167.652344 C 192.335938 169.035156 191.644531 169.917969 190.386719 170.773438 C 189.175781 171.597656 188.042969 172.429688 186.992188 170.667969 C 186.285156 169.484375 185.363281 169.207031 184.078125 169.621094 C 182.800781 170.03125 182.492188 170.910156 182.59375 172.113281 C 182.761719 174.152344 181.390625 174.210938 179.910156 174.210938 C 178.476562 174.210938 177.25 174.058594 177.457031 172.148438 C 177.585938 170.9375 177.234375 170.058594 175.953125 169.667969 C 174.722656 169.296875 173.742188 169.347656 173.027344 170.628906 C 172.058594 172.359375 170.925781 171.777344 169.667969 170.855469 C 168.394531 169.925781 167.570312 169.015625 168.882812 167.5625 C 169.726562 166.628906 169.835938 165.792969 169.023438 164.710938 C 168.203125 163.621094 167.417969 163.25 166.113281 163.863281 C 164.699219 164.523438 163.84375 163.964844 163.457031 162.421875 C 163.117188 161.054688 162.148438 159.628906 164.410156 159.039062 C 165.636719 158.71875 166.351562 158.117188 166.351562 156.644531 C 166.351562 155.171875 165.652344 154.636719 164.414062 154.269531 C 163.421875 153.96875 162.441406 153.457031 163.101562 152.109375 C 163.640625 151.015625 163.265625 149.167969 165.320312 149.394531 " clip-rule="nonzero"/></clipPath><clipPath id="152c4fcfc8"><path d="M 133.140625 122.628906 L 156.390625 122.628906 L 156.390625 146 L 133.140625 146 Z M 133.140625 122.628906 " clip-rule="nonzero"/></clipPath><clipPath id="777d82ce2c"><path d="M 138.546875 134.441406 C 138.519531 137.851562 141.222656 140.625 144.601562 140.652344 C 148 140.679688 150.75 137.960938 150.769531 134.550781 C 150.792969 131.140625 148.101562 128.371094 144.714844 128.324219 C 141.351562 128.277344 138.574219 131.035156 138.546875 134.441406 M 137.34375 143.832031 L 135.464844 141.6875 C 135.753906 141.265625 136.078125 140.953125 136.195312 140.578125 C 136.386719 139.964844 136.71875 139.191406 136.5 138.710938 C 136.28125 138.238281 135.40625 137.71875 134.898438 137.792969 C 133.515625 137.988281 133.136719 137.125 133.199219 136.195312 C 133.242188 135.578125 133.839844 134.769531 134.40625 134.460938 C 135.921875 133.652344 136.078125 132.574219 134.875 131.351562 C 134.425781 130.894531 134.148438 129.949219 134.269531 129.320312 C 134.46875 128.28125 135.183594 127.925781 136.382812 128.328125 C 138.183594 128.925781 138.871094 128.007812 138.546875 126.066406 C 138.445312 125.492188 138.945312 124.464844 139.449219 124.230469 C 139.964844 123.988281 141.054688 124.21875 141.476562 124.65625 C 142.820312 126.03125 144.121094 125.988281 144.582031 124.183594 C 144.929688 122.804688 145.792969 122.757812 146.632812 123.097656 C 147.210938 123.335938 147.8125 124.160156 147.90625 124.796875 C 148.171875 126.53125 149.222656 127.191406 150.625 126.109375 C 151.628906 125.332031 152.398438 125.414062 152.917969 126.375 C 153.226562 126.9375 153.3125 127.917969 153.023438 128.460938 C 152.191406 130.035156 152.59375 131.179688 154.347656 131.171875 C 155.558594 131.167969 156.011719 131.609375 156.203125 132.710938 C 156.402344 133.875 155.976562 134.332031 154.835938 134.652344 C 153.359375 135.0625 153.128906 136.675781 154.441406 137.527344 C 155.46875 138.203125 155.625 138.757812 155.0625 139.789062 C 154.535156 140.757812 154.054688 141.132812 152.871094 140.652344 C 151.363281 140.039062 150.238281 141.074219 150.789062 142.589844 C 151.242188 143.839844 150.933594 144.40625 149.863281 144.976562 C 148.761719 145.5625 148.269531 145.179688 147.644531 144.21875 C 146.800781 142.933594 145.453125 143.304688 144.710938 144.726562 C 144.410156 145.292969 143.65625 145.933594 143.070312 145.976562 C 142.039062 146.054688 141.101562 145.683594 141.363281 144.179688 C 141.441406 143.722656 140.976562 142.871094 140.558594 142.710938 C 140.039062 142.507812 139.292969 142.761719 138.679688 142.941406 C 138.300781 143.054688 137.984375 143.390625 137.351562 143.828125 " clip-rule="nonzero"/></clipPath><clipPath id="ebe6d16fec"><path d="M 225.292969 106 L 254 106 L 254 134.6875 L 225.292969 134.6875 Z M 225.292969 106 " clip-rule="nonzero"/></clipPath><clipPath id="b73dcc28ba"><path d="M 225.378906 120.144531 C 225.464844 112.246094 231.859375 106.035156 239.804688 106.140625 C 247.460938 106.238281 253.910156 112.863281 253.769531 120.476562 C 253.625 128.210938 247.144531 134.578125 239.484375 134.515625 C 231.621094 134.449219 225.289062 128 225.378906 120.148438 " clip-rule="nonzero"/></clipPath><clipPath id="a3caf47bb1"><path d="M 217 66 L 315 66 L 315 133 L 217 133 Z M 217 66 " clip-rule="nonzero"/></clipPath><clipPath id="7e15a6d15c"><path d="M 234.1875 29.652344 L 321.832031 62.929688 L 287.488281 153.378906 L 199.84375 120.101562 Z M 234.1875 29.652344 " clip-rule="nonzero"/></clipPath><clipPath id="68b640e73e"><path d="M 234.1875 29.652344 L 321.832031 62.929688 L 287.488281 153.378906 L 199.84375 120.101562 Z M 234.1875 29.652344 " clip-rule="nonzero"/></clipPath></defs><g clip-path="url(#0dc344fdfb)"><g clip-path="url(#b019910fff)"><path fill="#377ab7" d="M 92.230469 58.898438 L 282.996094 58.898438 L 282.996094 240.191406 L 92.230469 240.191406 Z M 92.230469 58.898438 " fill-opacity="1" fill-rule="nonzero"/></g></g><g clip-path="url(#f3d1ea075b)"><g clip-path="url(#7d3b0b12bb)"><path fill="#377ab7" d="M 92.230469 58.898438 L 282.996094 58.898438 L 282.996094 240.191406 L 92.230469 240.191406 Z M 92.230469 58.898438 " fill-opacity="1" fill-rule="nonzero"/></g></g><g clip-path="url(#8463f5f7ff)"><g clip-path="url(#bfcda83721)"><path fill="#377ab7" d="M 92.230469 58.898438 L 282.996094 58.898438 L 282.996094 240.191406 L 92.230469 240.191406 Z M 92.230469 58.898438 " fill-opacity="1" fill-rule="nonzero"/></g></g><g clip-path="url(#d446c8f1c0)"><g clip-path="url(#76b7f1b4d7)"><path fill="#020f1f" d="M 92.230469 58.898438 L 282.996094 58.898438 L 282.996094 240.191406 L 92.230469 240.191406 Z M 92.230469 58.898438 " fill-opacity="1" fill-rule="nonzero"/></g></g><g clip-path="url(#d3a829065e)"><g clip-path="url(#0509d4b72e)"><path fill="#020f1f" d="M 92.230469 58.898438 L 282.996094 58.898438 L 282.996094 240.191406 L 92.230469 240.191406 Z M 92.230469 58.898438 " fill-opacity="1" fill-rule="nonzero"/></g></g><g clip-path="url(#dce8fea17c)"><g clip-path="url(#7be000dafa)"><path fill="#020f1f" d="M 92.230469 58.898438 L 282.996094 58.898438 L 282.996094 240.191406 L 92.230469 240.191406 Z M 92.230469 58.898438 " fill-opacity="1" fill-rule="nonzero"/></g></g><g clip-path="url(#152c4fcfc8)"><g clip-path="url(#777d82ce2c)"><path fill="#020f1f" d="M 92.230469 58.898438 L 282.996094 58.898438 L 282.996094 240.191406 L 92.230469 240.191406 Z M 92.230469 58.898438 " fill-opacity="1" fill-rule="nonzero"/></g></g><g clip-path="url(#ebe6d16fec)"><g clip-path="url(#b73dcc28ba)"><path fill="#f2f2f2" d="M 92.230469 58.898438 L 282.996094 58.898438 L 282.996094 240.191406 L 92.230469 240.191406 Z M 92.230469 58.898438 " fill-opacity="1" fill-rule="nonzero"/></g></g><g clip-path="url(#a3caf47bb1)"><g clip-path="url(#7e15a6d15c)"><g clip-path="url(#68b640e73e)"><path fill="#020f1f" d="M 231.789062 79.078125 C 236.449219 89.441406 238.960938 98.988281 240.660156 110.679688 C 283.621094 72.976562 322.171875 63.058594 312.882812 68.125 C 282.582031 86.496094 258.585938 107.664062 233.585938 132.546875 C 231.148438 115.253906 228.332031 92.496094 217.664062 83.945312 C 215.445312 79.011719 227.289062 73.683594 231.789062 79.078125 Z M 231.789062 79.078125 " fill-opacity="1" fill-rule="nonzero"/></g></g></g><g fill="#377ab7" fill-opacity="1"><g transform="translate(87.361903, 290.814063)"><g><path d="M 30.359375 -5.859375 C 30.222656 -5.429688 30.15625 -5.003906 30.15625 -4.578125 C 30.15625 -4.210938 30.203125 -3.90625 30.296875 -3.65625 C 30.398438 -3.40625 30.507812 -3.203125 30.625 -3.046875 C 30.75 -2.898438 30.828125 -2.796875 30.859375 -2.734375 C 31.191406 -2.398438 31.359375 -2.066406 31.359375 -1.734375 C 31.359375 -1.671875 31.320312 -1.503906 31.25 -1.234375 C 31.113281 -0.773438 30.820312 -0.453125 30.375 -0.265625 C 29.9375 -0.0859375 29.253906 0 28.328125 0 L 16.546875 0 C 15.847656 0 15.304688 -0.113281 14.921875 -0.34375 C 14.546875 -0.582031 14.359375 -0.898438 14.359375 -1.296875 C 14.359375 -1.492188 14.410156 -1.707031 14.515625 -1.9375 C 14.609375 -2.195312 14.742188 -2.398438 14.921875 -2.546875 C 15.109375 -2.703125 15.367188 -2.878906 15.703125 -3.078125 C 16.234375 -3.378906 16.660156 -3.710938 16.984375 -4.078125 C 17.316406 -4.441406 17.601562 -5.035156 17.84375 -5.859375 L 19.125 -10.140625 L 11.375 -10.140625 L 10.03125 -7.296875 C 9.46875 -6.078125 9.1875 -5.117188 9.1875 -4.421875 C 9.1875 -4.023438 9.253906 -3.703125 9.390625 -3.453125 C 9.523438 -3.203125 9.722656 -2.945312 9.984375 -2.6875 C 10.210938 -2.414062 10.367188 -2.1875 10.453125 -2 C 10.535156 -1.820312 10.546875 -1.585938 10.484375 -1.296875 C 10.347656 -0.796875 10.070312 -0.453125 9.65625 -0.265625 C 9.25 -0.0859375 8.597656 0 7.703125 0 L 0.296875 0 C -0.460938 0 -1.039062 -0.140625 -1.4375 -0.421875 C -1.832031 -0.703125 -2.03125 -1.078125 -2.03125 -1.546875 C -2.03125 -2.066406 -1.835938 -2.484375 -1.453125 -2.796875 C -1.078125 -3.117188 -0.507812 -3.460938 0.25 -3.828125 C 1.238281 -4.328125 2.03125 -4.816406 2.625 -5.296875 C 3.226562 -5.773438 3.742188 -6.441406 4.171875 -7.296875 L 13.015625 -25.640625 C 14.378906 -28.484375 15.976562 -30.539062 17.8125 -31.8125 C 19.65625 -33.09375 22.082031 -33.734375 25.09375 -33.734375 C 28.46875 -33.734375 31.082031 -33.046875 32.9375 -31.671875 C 34.789062 -30.296875 35.71875 -28.382812 35.71875 -25.9375 C 35.71875 -24.90625 35.554688 -23.84375 35.234375 -22.75 Z M 20.625 -15.109375 L 23.25 -23.84375 C 23.382812 -24.25 23.453125 -24.664062 23.453125 -25.09375 C 23.453125 -25.71875 23.273438 -26.1875 22.921875 -26.5 C 22.578125 -26.820312 22.09375 -26.984375 21.46875 -26.984375 C 20.664062 -26.984375 19.984375 -26.75 19.421875 -26.28125 C 18.859375 -25.820312 18.296875 -24.992188 17.734375 -23.796875 L 13.65625 -15.109375 Z M 20.625 -15.109375 "/></g></g></g><g fill="#020f1f" fill-opacity="1"><g transform="translate(136.318135, 290.814063)"><g><path d="M 18.578125 -33.390625 C 20.429688 -33.390625 22.144531 -33.164062 23.71875 -32.71875 C 25.289062 -32.269531 26.890625 -31.566406 28.515625 -30.609375 L 29.65625 -31.546875 C 30.457031 -32.179688 31.113281 -32.613281 31.625 -32.84375 C 32.132812 -33.070312 32.722656 -33.1875 33.390625 -33.1875 C 34.179688 -33.1875 34.804688 -33.007812 35.265625 -32.65625 C 35.734375 -32.3125 35.96875 -31.8125 35.96875 -31.15625 C 35.96875 -30.882812 35.921875 -30.601562 35.828125 -30.3125 L 33.734375 -23.453125 C 33.503906 -22.660156 33.210938 -22.097656 32.859375 -21.765625 C 32.515625 -21.429688 31.992188 -21.265625 31.296875 -21.265625 C 30.566406 -21.265625 29.925781 -21.488281 29.375 -21.9375 C 28.832031 -22.382812 27.984375 -23.300781 26.828125 -24.6875 C 25.671875 -26.019531 24.617188 -26.957031 23.671875 -27.5 C 22.734375 -28.050781 21.765625 -28.328125 20.765625 -28.328125 C 20.035156 -28.328125 19.421875 -28.082031 18.921875 -27.59375 C 18.429688 -27.113281 18.1875 -26.53125 18.1875 -25.84375 C 18.1875 -25.039062 18.582031 -24.300781 19.375 -23.625 C 20.175781 -22.945312 21.421875 -22.09375 23.109375 -21.0625 C 24.828125 -20.039062 26.25 -19.113281 27.375 -18.28125 C 28.5 -17.457031 29.457031 -16.429688 30.25 -15.203125 C 31.050781 -13.972656 31.453125 -12.566406 31.453125 -10.984375 C 31.453125 -9.953125 31.285156 -8.925781 30.953125 -7.90625 C 30.160156 -5.25 28.617188 -3.234375 26.328125 -1.859375 C 24.046875 -0.484375 21.378906 0.203125 18.328125 0.203125 C 16.046875 0.203125 14.125 -0.0625 12.5625 -0.59375 C 11.007812 -1.125 9.421875 -2.019531 7.796875 -3.28125 L 6.015625 -1.78125 C 5.179688 -1.09375 4.5 -0.625 3.96875 -0.375 C 3.445312 -0.125 2.851562 0 2.1875 0 C 1.425781 0 0.820312 -0.179688 0.375 -0.546875 C -0.0703125 -0.910156 -0.296875 -1.40625 -0.296875 -2.03125 C -0.296875 -2.363281 -0.226562 -2.710938 -0.09375 -3.078125 L 2.328125 -10.484375 C 2.597656 -11.347656 2.960938 -11.960938 3.421875 -12.328125 C 3.890625 -12.691406 4.488281 -12.875 5.21875 -12.875 C 5.976562 -12.875 6.664062 -12.609375 7.28125 -12.078125 C 7.894531 -11.546875 8.695312 -10.582031 9.6875 -9.1875 C 10.75 -7.664062 11.734375 -6.609375 12.640625 -6.015625 C 13.554688 -5.421875 14.644531 -5.125 15.90625 -5.125 C 16.789062 -5.125 17.472656 -5.265625 17.953125 -5.546875 C 18.441406 -5.828125 18.785156 -6.28125 18.984375 -6.90625 C 19.046875 -7.070312 19.078125 -7.320312 19.078125 -7.65625 C 19.078125 -8.445312 18.695312 -9.171875 17.9375 -9.828125 C 17.175781 -10.492188 16 -11.289062 14.40625 -12.21875 C 12.71875 -13.25 11.34375 -14.171875 10.28125 -14.984375 C 9.21875 -15.796875 8.296875 -16.8125 7.515625 -18.03125 C 6.742188 -19.257812 6.359375 -20.703125 6.359375 -22.359375 C 6.359375 -23.515625 6.539062 -24.65625 6.90625 -25.78125 C 7.601562 -28.070312 9.023438 -29.910156 11.171875 -31.296875 C 13.328125 -32.691406 15.796875 -33.390625 18.578125 -33.390625 Z M 18.578125 -33.390625 "/></g></g></g><g fill="#377ab7" fill-opacity="1"><g transform="translate(190.710254, 290.814063)"><g><path d="M 32.453125 -33.09375 C 33.671875 -33.09375 34.617188 -32.828125 35.296875 -32.296875 C 35.984375 -31.765625 36.328125 -31.035156 36.328125 -30.109375 C 36.328125 -29.648438 36.257812 -29.203125 36.125 -28.765625 L 34.828125 -24.140625 C 34.597656 -23.253906 34.257812 -22.632812 33.8125 -22.28125 C 33.363281 -21.9375 32.726562 -21.765625 31.90625 -21.765625 C 31.101562 -21.765625 30.476562 -21.9375 30.03125 -22.28125 C 29.582031 -22.632812 29.242188 -23.207031 29.015625 -24 L 28.21875 -26.828125 C 28.050781 -27.421875 27.851562 -27.816406 27.625 -28.015625 C 27.394531 -28.222656 26.945312 -28.328125 26.28125 -28.328125 L 21.0625 -28.328125 L 18.578125 -19.484375 L 20.765625 -19.484375 C 20.992188 -19.484375 21.3125 -19.644531 21.71875 -19.96875 L 23.40625 -21.46875 C 23.894531 -21.894531 24.320312 -22.207031 24.6875 -22.40625 C 25.050781 -22.601562 25.5 -22.703125 26.03125 -22.703125 C 26.632812 -22.703125 27.125 -22.546875 27.5 -22.234375 C 27.882812 -21.921875 28.078125 -21.515625 28.078125 -21.015625 C 28.078125 -20.878906 28.039062 -20.679688 27.96875 -20.421875 L 25.9375 -13.515625 C 25.738281 -12.785156 25.398438 -12.242188 24.921875 -11.890625 C 24.441406 -11.546875 23.921875 -11.375 23.359375 -11.375 C 22.429688 -11.375 21.734375 -11.851562 21.265625 -12.8125 L 20.421875 -14.5625 C 20.191406 -15.050781 19.828125 -15.296875 19.328125 -15.296875 L 17.390625 -15.296875 L 14.453125 -4.765625 L 18.828125 -4.765625 C 19.460938 -4.765625 20.019531 -4.890625 20.5 -5.140625 C 20.976562 -5.390625 21.5 -5.828125 22.0625 -6.453125 L 25.046875 -9.734375 C 25.578125 -10.296875 26.082031 -10.703125 26.5625 -10.953125 C 27.039062 -11.203125 27.628906 -11.328125 28.328125 -11.328125 C 29.054688 -11.328125 29.648438 -11.160156 30.109375 -10.828125 C 30.578125 -10.492188 30.8125 -10 30.8125 -9.34375 C 30.8125 -9.070312 30.757812 -8.753906 30.65625 -8.390625 L 29.21875 -3.375 C 28.851562 -2.113281 28.320312 -1.234375 27.625 -0.734375 C 26.925781 -0.242188 25.914062 0 24.59375 0 L 0.890625 0 C 0.191406 0 -0.34375 -0.113281 -0.71875 -0.34375 C -1.101562 -0.582031 -1.296875 -0.898438 -1.296875 -1.296875 C -1.296875 -1.492188 -1.242188 -1.707031 -1.140625 -1.9375 C -1.003906 -2.300781 -0.785156 -2.582031 -0.484375 -2.78125 C -0.191406 -2.976562 -0.015625 -3.09375 0.046875 -3.125 C 0.578125 -3.457031 1.007812 -3.796875 1.34375 -4.140625 C 1.675781 -4.492188 1.957031 -5.066406 2.1875 -5.859375 L 8.296875 -27.28125 C 8.429688 -27.707031 8.5 -28.101562 8.5 -28.46875 C 8.5 -28.863281 8.441406 -29.191406 8.328125 -29.453125 C 8.210938 -29.722656 8.035156 -30.007812 7.796875 -30.3125 C 7.503906 -30.738281 7.359375 -31.085938 7.359375 -31.359375 C 7.359375 -31.453125 7.390625 -31.632812 7.453125 -31.90625 C 7.585938 -32.332031 7.882812 -32.632812 8.34375 -32.8125 C 8.8125 -33 9.492188 -33.09375 10.390625 -33.09375 Z M 32.453125 -33.09375 "/></g></g></g><g fill="#020f1f" fill-opacity="1"><g transform="translate(243.942617, 290.814063)"><g><path d="M 18.578125 -33.390625 C 20.429688 -33.390625 22.144531 -33.164062 23.71875 -32.71875 C 25.289062 -32.269531 26.890625 -31.566406 28.515625 -30.609375 L 29.65625 -31.546875 C 30.457031 -32.179688 31.113281 -32.613281 31.625 -32.84375 C 32.132812 -33.070312 32.722656 -33.1875 33.390625 -33.1875 C 34.179688 -33.1875 34.804688 -33.007812 35.265625 -32.65625 C 35.734375 -32.3125 35.96875 -31.8125 35.96875 -31.15625 C 35.96875 -30.882812 35.921875 -30.601562 35.828125 -30.3125 L 33.734375 -23.453125 C 33.503906 -22.660156 33.210938 -22.097656 32.859375 -21.765625 C 32.515625 -21.429688 31.992188 -21.265625 31.296875 -21.265625 C 30.566406 -21.265625 29.925781 -21.488281 29.375 -21.9375 C 28.832031 -22.382812 27.984375 -23.300781 26.828125 -24.6875 C 25.671875 -26.019531 24.617188 -26.957031 23.671875 -27.5 C 22.734375 -28.050781 21.765625 -28.328125 20.765625 -28.328125 C 20.035156 -28.328125 19.421875 -28.082031 18.921875 -27.59375 C 18.429688 -27.113281 18.1875 -26.53125 18.1875 -25.84375 C 18.1875 -25.039062 18.582031 -24.300781 19.375 -23.625 C 20.175781 -22.945312 21.421875 -22.09375 23.109375 -21.0625 C 24.828125 -20.039062 26.25 -19.113281 27.375 -18.28125 C 28.5 -17.457031 29.457031 -16.429688 30.25 -15.203125 C 31.050781 -13.972656 31.453125 -12.566406 31.453125 -10.984375 C 31.453125 -9.953125 31.285156 -8.925781 30.953125 -7.90625 C 30.160156 -5.25 28.617188 -3.234375 26.328125 -1.859375 C 24.046875 -0.484375 21.378906 0.203125 18.328125 0.203125 C 16.046875 0.203125 14.125 -0.0625 12.5625 -0.59375 C 11.007812 -1.125 9.421875 -2.019531 7.796875 -3.28125 L 6.015625 -1.78125 C 5.179688 -1.09375 4.5 -0.625 3.96875 -0.375 C 3.445312 -0.125 2.851562 0 2.1875 0 C 1.425781 0 0.820312 -0.179688 0.375 -0.546875 C -0.0703125 -0.910156 -0.296875 -1.40625 -0.296875 -2.03125 C -0.296875 -2.363281 -0.226562 -2.710938 -0.09375 -3.078125 L 2.328125 -10.484375 C 2.597656 -11.347656 2.960938 -11.960938 3.421875 -12.328125 C 3.890625 -12.691406 4.488281 -12.875 5.21875 -12.875 C 5.976562 -12.875 6.664062 -12.609375 7.28125 -12.078125 C 7.894531 -11.546875 8.695312 -10.582031 9.6875 -9.1875 C 10.75 -7.664062 11.734375 -6.609375 12.640625 -6.015625 C 13.554688 -5.421875 14.644531 -5.125 15.90625 -5.125 C 16.789062 -5.125 17.472656 -5.265625 17.953125 -5.546875 C 18.441406 -5.828125 18.785156 -6.28125 18.984375 -6.90625 C 19.046875 -7.070312 19.078125 -7.320312 19.078125 -7.65625 C 19.078125 -8.445312 18.695312 -9.171875 17.9375 -9.828125 C 17.175781 -10.492188 16 -11.289062 14.40625 -12.21875 C 12.71875 -13.25 11.34375 -14.171875 10.28125 -14.984375 C 9.21875 -15.796875 8.296875 -16.8125 7.515625 -18.03125 C 6.742188 -19.257812 6.359375 -20.703125 6.359375 -22.359375 C 6.359375 -23.515625 6.539062 -24.65625 6.90625 -25.78125 C 7.601562 -28.070312 9.023438 -29.910156 11.171875 -31.296875 C 13.328125 -32.691406 15.796875 -33.390625 18.578125 -33.390625 Z M 18.578125 -33.390625 "/></g></g></g></svg>